<svg width="163" height="50" viewBox="0 0 163 50" fill="none" xmlns="http://www.w3.org/2000/svg">
<g clip-path="url(#clip0_3_76)">
<path d="M45.0721 21.3671C47.1586 20.5739 49.2123 20.026 51.0902 19.0243C51.8654 18.6075 52.6167 18.1475 53.3403 17.6465C54.0559 17.1536 54.6549 16.5103 55.0954 15.7616L55.2018 15.8066C55.034 16.3626 54.8786 16.9228 54.6986 17.4706C54.5185 18.0185 54.2894 18.6195 54.089 19.1879C53.8885 19.7562 53.6471 20.3163 53.4221 20.8846C54.4899 20.9623 56.4537 20.2264 58.3315 19.0938C56.3637 22.0744 54.1503 24.8179 51.172 27.0135C51.9868 27.2132 52.8315 27.2603 53.6635 27.1525C53.5864 27.2069 53.5058 27.256 53.4221 27.2997C51.3926 28.2846 49.2469 29.01 47.0358 29.4585C45.9382 29.6936 44.8032 29.6936 43.7056 29.4585C43.6148 29.4443 43.5233 29.4347 43.4315 29.4298C43.3538 29.6547 43.2801 29.8714 43.2147 30.0881C42.6296 32.1238 41.8243 34.0898 40.8132 35.9512C39.7233 38.0239 38.2162 39.8488 36.3866 41.3114L36.2393 41.4177C36.3088 41.7488 36.3784 42.0514 36.4275 42.358C36.5415 43.0401 36.4489 43.7406 36.1615 44.3696C36.0257 44.7541 35.7556 45.0766 35.4008 45.2779C35.046 45.4792 34.6305 45.5458 34.2305 45.4654C34.1405 45.4654 34.0505 45.4654 33.9523 45.4654C33.9728 45.5226 33.9769 45.5676 34.0014 45.5921C34.701 46.2177 34.7787 47.1867 33.9564 48.1025C33.6041 48.5143 33.1728 48.8513 32.688 49.0936C32.2031 49.3359 31.6745 49.4785 31.1335 49.5131C30.2457 49.5663 29.5993 49.2187 29.2393 48.1598C29.1575 48.3315 29.0961 48.4542 29.0389 48.5686C28.9179 48.8624 28.711 49.1128 28.4453 49.2871C28.1796 49.4615 27.8675 49.5516 27.5497 49.5458C26.9089 49.5664 26.2726 49.4326 25.6944 49.1558C25.1162 48.879 24.6132 48.4673 24.2277 47.9554C23.9473 47.6576 23.7957 47.2615 23.8056 46.8528C23.8156 46.4441 23.9863 46.0558 24.2808 45.772C24.3177 45.7312 24.3422 45.678 24.4118 45.5758L24.064 45.6289C23.6857 45.712 23.2905 45.6662 22.9412 45.4987C22.592 45.3313 22.3089 45.0518 22.1371 44.7049C21.7651 44.0297 21.6216 43.2523 21.728 42.4889C21.7607 42.2354 21.8016 41.986 21.8425 41.7039C21.4948 41.4217 21.1225 41.1355 20.7665 40.833C19.2193 39.4647 17.9185 37.8411 16.9209 36.033C15.9155 34.2363 15.0932 32.3433 14.4662 30.3825C14.4048 30.1944 14.3475 30.0104 14.2943 29.8428C14.2371 29.8142 14.2003 29.7774 14.1716 29.7815C12.2979 30.0963 10.4896 29.7324 8.73038 29.1559C7.30257 28.6857 5.91158 28.0888 4.50422 27.5491C4.40447 27.4962 4.30875 27.4361 4.21784 27.3692C5.13699 27.4921 6.07017 27.4617 6.97937 27.2792C3.99283 25.1286 1.74679 22.4301 -0.253784 19.4782C1.21639 20.4502 2.90149 21.0494 4.6556 21.224C3.92001 19.5608 3.28741 17.854 2.76139 16.1132C2.83501 16.1559 2.90362 16.2066 2.96595 16.2645C3.69254 17.2712 4.64176 18.0967 5.73975 18.6768C7.54472 19.7214 9.49399 20.4943 11.5246 20.9705C11.8642 21.0523 12.1956 21.1545 12.6047 21.269C12.1756 17.7505 11.9815 14.2074 12.0238 10.6631C12.0892 7.13463 12.2038 3.61024 12.5638 0.0040869C12.7806 0.183986 12.9279 0.306644 13.067 0.412948C16.4877 3.43007 20.7039 5.40132 25.2136 6.09203C29.5993 6.75848 33.805 6.0307 37.8553 4.27669C40.2249 3.22845 42.4632 1.90557 44.5239 0.335264C44.6671 0.233048 44.8061 0.12674 44.9534 0.024525C45.0142 0.00315263 45.0774 -0.0105777 45.1416 -0.0163574C45.547 3.52164 45.726 7.08187 45.6776 10.6427C45.6825 14.2261 45.4804 17.8069 45.0721 21.3671ZM27.5128 22.3197L29.1248 25.0469L30.704 22.2584L30.9822 22.3647L31.2522 22.4792C32.3541 22.9378 33.536 23.1739 34.7296 23.1739C35.9233 23.1739 37.1052 22.9378 38.2071 22.4792C43.9143 20.1282 44.6711 13.8931 41.7501 10.0703C40.3088 8.25687 38.2364 7.05316 35.9463 6.69925C33.6562 6.34534 31.3168 6.86726 29.3948 8.16087L28.8793 8.52884L28.3597 8.17314C26.8613 7.18398 25.1073 6.65189 23.3116 6.64172C21.5158 6.63156 19.7559 7.14377 18.2464 8.1159C14.1552 10.8062 13.247 16.2318 16.3358 19.9116C18.631 22.6468 21.6216 23.6567 25.1359 23.0148C25.9418 22.8273 26.7367 22.5952 27.5169 22.3197H27.5128ZM13.6929 3.10325C13.607 4.9186 13.5252 6.62355 13.4393 8.45116L18.1891 6.09203L13.6929 3.10325ZM43.6934 8.55337C43.6484 6.72576 43.6934 5.00855 43.5338 3.20547L39.0335 6.02661L43.6934 8.55337ZM30.1926 39.4715C30.4012 40.2115 30.8635 40.6163 31.3463 40.5754C31.829 40.5345 32.1359 40.1665 32.2259 39.5532C31.9411 39.8027 31.5713 39.9334 31.1929 39.9182C30.8145 39.903 30.4564 39.743 30.1926 39.4715ZM31.6613 33.1709C31.8413 33.8864 32.365 34.3321 32.8886 34.2503C33.0998 34.2108 33.2892 34.0954 33.4211 33.926C33.553 33.7565 33.6182 33.5446 33.6046 33.3304C32.7291 33.7474 32.7291 33.7474 31.6613 33.1709ZM25.9337 39.5696C26.1873 40.2483 26.6087 40.5591 27.1201 40.4977C27.3405 40.4547 27.5404 40.3399 27.6884 40.1712C27.8365 40.0025 27.9244 39.7895 27.9383 39.5655C27.2878 40.0684 26.6292 40.003 25.9296 39.5696H25.9337ZM27.9383 36.5113C27.9964 36.7543 28.1379 36.9693 28.3383 37.1187C28.5387 37.2681 28.7851 37.3426 29.0348 37.3291C29.2617 37.3043 29.474 37.2049 29.6384 37.0466C29.8028 36.8882 29.9099 36.6798 29.943 36.4541C28.9161 36.8589 29.227 36.9202 27.9342 36.5113H27.9383ZM36.5993 32.9092C36.8693 33.5062 37.3275 33.776 37.7653 33.6534C38.203 33.5307 38.3912 33.1382 38.3544 32.4677C37.9044 33.2159 37.2989 33.2036 36.5952 32.9092H36.5993ZM22.4521 32.8479C21.6748 33.0646 21.2493 32.5127 20.6765 32.0302C20.7952 32.6108 20.8402 33.0932 21.372 33.2772C21.4709 33.3198 21.5771 33.3424 21.6847 33.3439C21.7924 33.3453 21.8992 33.3255 21.9991 33.2857C22.0991 33.2458 22.1902 33.1866 22.2672 33.1115C22.3442 33.0364 22.4057 32.9468 22.448 32.8479H22.4521ZM23.2703 35.8204C23.3112 36.3519 23.4176 36.8261 23.9904 36.9774C24.3995 37.0878 24.7063 36.9447 25.0173 36.4582C24.2072 36.7239 23.749 36.2415 23.2499 35.8204H23.2703ZM33.0891 36.3232C33.3673 36.9324 33.8541 37.235 34.2755 37.141C34.6969 37.0469 34.971 36.7117 35.016 36.0861C34.4678 36.7975 33.8419 36.7321 33.0809 36.3232H33.0891ZM27.9261 33.2854C27.6406 33.465 27.3126 33.5656 26.9755 33.5771C26.6384 33.5886 26.3043 33.5105 26.0073 33.3508C26.0778 33.5481 26.2044 33.7205 26.3715 33.8469C26.5387 33.9733 26.7391 34.0481 26.9483 34.0622C27.4801 34.0745 27.7583 33.7556 27.9261 33.2854Z" fill="white"/>
<path d="M41.6969 15.0379C41.8074 18.3088 38.8331 21.0482 35.6911 20.9991C34.0569 20.9757 32.4968 20.314 31.3445 19.1556C30.1923 17.9972 29.5395 16.4341 29.5257 14.8008C29.5209 14.0115 29.6717 13.229 29.9694 12.4979C30.2672 11.7669 30.7061 11.1016 31.2611 10.5401C31.8162 9.97855 32.4764 9.53178 33.2043 9.22528C33.9321 8.91877 34.7131 8.75854 35.5029 8.75372C36.3227 8.75907 37.1335 8.92595 37.8887 9.24481C38.6439 9.56367 39.3288 10.0283 39.9041 10.612C40.4794 11.1957 40.9339 11.887 41.2415 12.6465C41.5492 13.406 41.7039 14.2186 41.6969 15.0379ZM39.7004 11.5095C39.293 10.8865 38.6751 10.4307 37.9594 10.225C37.2437 10.0194 36.4779 10.0777 35.8016 10.3892C35.1405 10.7136 34.6145 11.2598 34.3154 11.9324C34.0163 12.6049 33.9631 13.3611 34.1651 14.0689C34.3718 14.7617 34.8088 15.3633 35.4039 15.7744C35.9989 16.1855 36.7165 16.3815 37.438 16.3299C39.0745 16.1623 40.1791 14.858 40.1627 13.6192C39.59 13.9463 39.0377 13.9994 38.5508 13.5047C38.3844 13.3532 38.27 13.1532 38.2237 12.933C38.1775 12.7128 38.2017 12.4837 38.2931 12.2781C38.5263 11.6771 39.0131 11.4604 39.7004 11.5095Z" fill="white"/>
<path d="M16.164 14.7435C16.1559 13.9516 16.3051 13.166 16.603 12.4322C16.9008 11.6983 17.3415 11.0308 17.8993 10.4684C18.4572 9.90593 19.1212 9.4597 19.8528 9.15554C20.5845 8.85139 21.3692 8.69535 22.1616 8.69648C23.8037 8.69864 25.3779 9.35151 26.5391 10.5119C27.7002 11.6723 28.3535 13.2456 28.3556 14.8866C28.3578 15.6771 28.204 16.4603 27.903 17.1914C27.6021 17.9224 27.1599 18.587 26.6017 19.1471C26.0435 19.7072 25.3803 20.1519 24.65 20.4556C23.9198 20.7594 23.1367 20.9163 22.3457 20.9173C20.7122 20.9003 19.1504 20.2446 17.9949 19.0905C16.8393 17.9365 16.1821 16.376 16.164 14.7435ZM26.5964 11.534C26.1746 10.8988 25.5333 10.4413 24.7951 10.249C24.057 10.0566 23.2738 10.1429 22.5953 10.4914C21.9204 10.8517 21.4001 11.4455 21.1316 12.1615C20.8632 12.8776 20.8651 13.6669 21.1369 14.3817C21.4088 15.0964 21.9319 15.6877 22.6085 16.0448C23.2851 16.4019 24.0687 16.5004 24.8127 16.3217C26.1137 15.9865 27.1406 14.7763 27.0056 13.7296C26.4737 13.9994 25.9459 14.0648 25.4796 13.6274C25.3025 13.4835 25.1758 13.2872 25.1177 13.0668C25.0596 12.8463 25.0732 12.6131 25.1564 12.4008C25.3937 11.7588 25.9091 11.5462 26.5964 11.534Z" fill="white"/>
<path d="M159.903 7.41983L157.354 11.9582C157.3 11.9648 157.245 11.9648 157.191 11.9582C152.776 10.1101 148.714 12.919 147.703 16.7746C147.303 18.2428 147.361 19.798 147.868 21.2327C148.375 22.6674 149.308 23.9135 150.543 24.8046C151.717 25.6609 153.141 26.1065 154.594 26.0725C156.047 26.0385 157.449 25.5268 158.582 24.6166L159.044 24.2486L163 27.6748C162.881 27.8098 162.8 27.9161 162.705 28.006C161.523 29.1614 160.11 30.0561 158.56 30.6322C157.01 31.2083 155.356 31.453 153.705 31.3505C148.542 31.1379 143.743 27.2251 142.532 21.8772C141.419 16.9504 142.602 12.6165 146.382 9.14523C148.484 7.17905 151.247 6.07179 154.126 6.04197C155.96 5.98242 157.782 6.36971 159.433 7.17044C159.572 7.22768 159.703 7.30944 159.903 7.41983Z" fill="white"/>
<path d="M105.061 7.39941C104.173 8.98579 103.331 10.4822 102.471 12.0073C101.676 11.6405 100.815 11.4349 99.939 11.4022C98.4978 11.3419 97.0735 11.731 95.8633 12.5155C94.6531 13.3001 93.717 14.4413 93.1845 15.7811C92.5382 17.313 92.4172 19.0157 92.8405 20.6235C93.2638 22.2314 94.2076 23.654 95.5247 24.6697C96.7015 25.5911 98.1561 26.0866 99.6511 26.0755C101.146 26.0644 102.593 25.5472 103.756 24.6084L104.21 24.2486L108.175 27.6871C107.355 28.5599 106.406 29.3005 105.36 29.8827C102.935 31.2272 100.118 31.6883 97.3905 31.1872C94.6631 30.686 92.1945 29.2537 90.4066 27.1351C89.2539 25.8287 88.3893 24.2943 87.8691 22.6318C87.349 20.9693 87.1848 19.2161 87.3874 17.486C87.8906 12.4897 90.4926 8.92447 95.091 6.93331C98.1716 5.60042 101.322 5.73943 104.407 7.06823C104.603 7.17045 104.803 7.27266 105.061 7.39941Z" fill="white"/>
<path d="M117.875 6.40174C118.112 6.40174 118.284 6.37311 118.447 6.37311C120.055 6.37311 121.667 6.37311 123.275 6.37311C123.448 6.35605 123.621 6.396 123.769 6.48682C123.917 6.57764 124.031 6.71434 124.093 6.87602C125.571 9.68626 127.059 12.4897 128.557 15.2863C128.655 15.4744 128.765 15.6584 128.9 15.9037C129.035 15.6706 129.138 15.4948 129.236 15.3067C130.737 12.5101 132.247 9.7176 133.736 6.90872C133.808 6.73169 133.936 6.58347 134.101 6.48728C134.266 6.39109 134.459 6.35237 134.648 6.37721C136.195 6.40583 137.745 6.37721 139.296 6.37721H139.991C139.856 6.65114 139.762 6.85148 139.66 7.05182C137.08 11.8737 134.498 16.6928 131.915 21.5092C131.687 21.9176 131.57 22.3785 131.576 22.8461C131.576 25.4342 131.576 28.0223 131.576 30.6145V31.3464C131.384 31.1992 131.273 31.1256 131.167 31.0397C129.657 29.6741 128.148 28.2963 126.63 26.9511C126.51 26.8531 126.415 26.7275 126.354 26.5852C126.293 26.4429 126.267 26.2879 126.278 26.1334C126.278 25.0336 126.278 23.9378 126.278 22.838C126.288 22.4481 126.194 22.0625 126.004 21.7218C123.385 16.8318 120.773 11.9391 118.165 7.04365C118.075 6.83513 117.993 6.64296 117.875 6.40174Z" fill="white"/>
<path d="M63 6.38947H68.969L74.0379 15.9159C75.7685 12.69 77.4622 9.53769 79.1437 6.39764H85.084C84.9654 6.65113 84.8795 6.86375 84.7731 7.06C82.1793 11.9173 79.5814 16.7732 76.9795 21.6277C76.7884 21.9684 76.691 22.3535 76.6972 22.7439C76.6972 25.3525 76.6972 27.961 76.6972 30.5695V31.2932C76.5555 31.1983 76.4189 31.0959 76.2881 30.9866C74.7907 29.6332 73.2933 28.2717 71.7878 26.9266C71.6763 26.8348 71.5879 26.7182 71.5297 26.5862C71.4714 26.4541 71.4449 26.3102 71.4523 26.1661C71.4523 25.0458 71.4523 23.9296 71.4523 22.8093C71.457 22.4393 71.3654 22.0744 71.1864 21.7504C68.5926 16.9013 66.0002 12.0413 63.4091 7.17039C63.2823 6.94961 63.1636 6.70838 63 6.38947Z" fill="white"/>
<path d="M115.629 31.3423C115.363 31.1133 115.187 30.9621 115.015 30.8067C113.579 29.527 112.151 28.239 110.711 26.9716C110.59 26.8744 110.494 26.7492 110.432 26.6067C110.37 26.4642 110.344 26.3088 110.355 26.1539C110.355 19.6502 110.355 13.1439 110.355 6.63481V6.18915C112.108 6.05022 113.869 6.03518 115.624 6.14417L115.629 31.3423Z" fill="white"/>
<path d="M151.299 41.5148C151.314 41.7872 151.314 42.0601 151.299 42.3325C151.293 42.5248 151.233 42.7116 151.127 42.8722C151.068 42.931 150.997 42.9767 150.919 43.0063C150.84 43.0358 150.757 43.0487 150.673 43.0439C150.571 43.0439 150.436 42.8354 150.416 42.7046C150.346 42.2957 150.317 41.8541 150.285 41.4248C150.285 41.1918 150.285 40.9546 150.285 40.6398C149.576 40.8262 148.912 41.1545 148.333 41.6047C148.215 41.7029 148.186 41.9155 148.12 42.079C147.989 42.472 147.74 42.8156 147.409 43.0644C147.359 43.0969 147.307 43.1256 147.253 43.1502C147.121 43.2356 146.967 43.281 146.809 43.281C146.652 43.281 146.498 43.2356 146.365 43.1502C146.202 42.9744 146.251 42.6555 146.541 42.308C146.76 42.0556 146.993 41.8166 147.241 41.5925C147.585 41.2736 147.589 41.2817 147.568 40.6603C147.339 40.8115 147.159 40.9465 146.938 41.0691C146.717 41.1918 146.468 41.3308 146.222 41.1754C146.108 41.0958 146.022 40.9819 145.978 40.8503C145.933 40.7187 145.931 40.5762 145.973 40.4436C146.003 40.1935 146.085 39.9525 146.214 39.7362C146.28 39.6712 146.36 39.6219 146.448 39.5921C146.536 39.5624 146.629 39.553 146.721 39.5645C146.959 39.5972 146.885 39.8303 146.864 40.002C146.838 40.1303 146.853 40.2638 146.909 40.3822C147.098 40.1696 147.286 39.9529 147.478 39.7444C147.6 39.5945 147.737 39.4575 147.887 39.3356C148.186 39.123 148.423 39.2333 148.456 39.5972C148.489 39.9611 148.456 40.2473 148.456 40.5948L150.252 39.8303C150.321 39.5318 150.428 39.1843 150.837 39.1802C150.968 39.1802 151.103 39.3723 151.291 39.5154C151.551 39.4531 151.821 39.4448 152.085 39.4909C152.318 39.5727 152.469 39.8752 152.748 40.1819L154.265 39.773V38.4892L152.801 38.6528C152.706 38.6811 152.609 38.6962 152.51 38.6977C152.367 38.6732 152.134 38.6282 152.101 38.5546C152.087 38.474 152.09 38.3911 152.111 38.3119C152.132 38.2328 152.171 38.1593 152.224 38.0967C152.356 37.9844 152.521 37.9171 152.694 37.9045C153.255 37.8146 153.815 37.7492 154.384 37.6756C154.407 37.4726 154.451 37.2725 154.515 37.0786C154.578 36.8934 154.693 36.7303 154.846 36.6085C155.116 36.4326 155.337 36.5839 155.333 36.9151C155.333 37.1073 155.3 37.2994 155.28 37.5488L156.229 37.4916C156.679 37.4671 157.129 37.4303 157.579 37.4384C157.65 37.4425 157.718 37.4631 157.78 37.4986C157.841 37.5341 157.893 37.5836 157.931 37.6429C157.943 37.7172 157.937 37.7934 157.913 37.8647C157.888 37.936 157.847 38.0003 157.792 38.0517C157.612 38.1603 157.408 38.2235 157.199 38.2357C156.536 38.293 155.869 38.3216 155.153 38.3625C155.061 38.9934 155.046 39.6332 155.108 40.2678C155.17 40.7216 155.448 40.8933 155.865 40.6766C156.301 40.4576 156.707 40.1827 157.072 39.8589C157.538 39.45 157.98 39.2783 158.549 39.634C158.69 39.6972 158.845 39.7212 158.999 39.7035C159.408 39.7035 159.817 39.6299 160.226 39.6258C160.357 39.6258 160.603 39.7117 160.607 39.769C160.617 39.936 160.565 40.1009 160.459 40.231C160.347 40.3329 160.202 40.3922 160.05 40.3986C159.662 40.419 159.269 40.3986 158.847 40.3986C158.586 40.8483 158.307 41.3267 157.71 41.3758C157.549 41.3811 157.39 41.3363 157.255 41.2478C157.12 41.1592 157.016 41.0311 156.957 40.8811C156.626 41.0691 156.319 41.2899 155.988 41.4289C155.104 41.8378 154.683 41.6497 154.396 40.7298C154.376 40.6766 154.351 40.6235 154.302 40.5049C153.32 40.832 152.273 40.9097 151.299 41.5148Z" fill="white"/>
<path d="M108.305 37.557C108.665 37.5325 108.972 37.5038 109.283 37.4875C109.733 37.4629 110.183 37.4343 110.633 37.4343C110.697 37.4384 110.759 37.4566 110.815 37.4877C110.871 37.5189 110.919 37.5621 110.957 37.6142C110.97 37.6782 110.971 37.7444 110.957 37.8085C110.944 37.8726 110.917 37.9332 110.879 37.9863C110.806 38.0805 110.71 38.1539 110.6 38.1992C110.491 38.2444 110.371 38.2598 110.253 38.2439C109.57 38.2684 108.886 38.3175 108.125 38.3624C108.125 39.0207 108.08 39.6258 108.125 40.2269C108.154 40.7134 108.469 40.8933 108.903 40.6725C109.324 40.4613 109.715 40.1945 110.065 39.8793C110.539 39.4459 110.997 39.2538 111.587 39.6422C111.714 39.7015 111.856 39.7228 111.996 39.7035C112.405 39.6831 112.814 39.6544 113.223 39.6176C113.407 39.6176 113.591 39.5686 113.665 39.7894C113.682 39.8361 113.691 39.8858 113.689 39.9356C113.687 39.9855 113.675 40.0344 113.654 40.0797C113.633 40.125 113.604 40.1657 113.567 40.1993C113.53 40.233 113.487 40.2591 113.44 40.2759C113.162 40.3639 112.875 40.4175 112.585 40.4354C112.344 40.4394 112.103 40.4257 111.865 40.3945C111.701 40.8006 111.392 41.1314 110.997 41.3226C110.511 41.5066 110.216 41.2531 109.975 40.9137C109.602 41.1182 109.259 41.3512 108.882 41.5107C108.125 41.8296 107.704 41.6252 107.438 40.8401C107.405 40.7502 107.385 40.6602 107.344 40.5294C106.338 40.8361 105.298 40.9383 104.333 41.5311C104.333 41.7764 104.333 42.0708 104.333 42.3488C104.328 42.5213 104.278 42.6894 104.186 42.8354C104.131 42.9009 104.063 42.9535 103.986 42.9896C103.909 43.0256 103.825 43.0442 103.74 43.0439C103.621 43.0439 103.466 42.8272 103.437 42.6882C103.371 42.2821 103.327 41.8726 103.306 41.4616C103.306 41.2122 103.306 40.9546 103.306 40.6439C102.632 40.8341 101.996 41.1413 101.428 41.5516C101.305 41.6415 101.265 41.85 101.175 41.9972C100.974 42.3243 100.765 42.6555 100.557 42.9785C100.503 43.0365 100.437 43.0825 100.365 43.1134C100.225 43.2241 100.054 43.2864 99.8756 43.2908C99.6977 43.2953 99.5232 43.2416 99.3785 43.1379C99.2108 42.9458 99.2763 42.6391 99.6077 42.2507C99.8074 42.0082 100.032 41.7875 100.279 41.5925C100.423 41.4945 100.53 41.3509 100.582 41.1848C100.635 41.0187 100.63 40.8397 100.569 40.6766C100.328 40.832 100.111 40.9914 99.8777 41.1141C99.3376 41.4003 98.9817 41.1918 98.9899 40.5867C98.9967 40.3716 99.0324 40.1584 99.0963 39.9529C99.2067 39.6136 99.3826 39.544 99.8654 39.6054V40.4231C100.058 40.2228 100.201 40.0797 100.34 39.9284C100.501 39.731 100.675 39.5439 100.86 39.3682C101.187 39.0984 101.457 39.217 101.498 39.634C101.506 39.7906 101.506 39.9476 101.498 40.1042V40.5826C102.038 40.3577 102.561 40.1492 103.077 39.9161C103.183 39.8711 103.257 39.7444 103.331 39.6422C103.404 39.54 103.376 39.4705 103.433 39.4337C103.571 39.3069 103.74 39.2194 103.924 39.1802C104.038 39.1802 104.157 39.3887 104.243 39.4705C104.543 39.4226 104.85 39.4309 105.147 39.495C105.376 39.5931 105.511 39.9039 105.748 40.1901L107.291 39.7812V38.481C106.755 38.5423 106.219 38.5955 105.679 38.665C105.446 38.6936 105.196 38.7836 105.09 38.4728C105.012 38.2561 105.249 37.9659 105.573 37.9127C106.17 37.8146 106.771 37.7491 107.418 37.6633C107.439 37.4732 107.479 37.2857 107.536 37.1031C107.595 36.9219 107.701 36.7596 107.843 36.633C108.125 36.4244 108.363 36.5798 108.367 36.9437C108.367 37.0418 108.367 37.14 108.342 37.2381C108.318 37.3362 108.318 37.3853 108.305 37.557Z" fill="white"/>
<path d="M126.176 38.4851C125.852 38.8695 125.554 39.3029 125.194 39.634C124.739 40.1186 124.239 40.5581 123.7 40.9465C122.608 41.662 121.761 41.2122 121.712 39.9162C121.707 39.0315 121.883 38.155 122.228 37.3403C122.273 37.2122 122.363 37.1048 122.481 37.0378C122.547 37.004 122.619 36.9844 122.693 36.9802C122.767 36.9759 122.841 36.9872 122.911 37.0132C122.993 37.0623 123.013 37.2831 122.984 37.4221C122.854 38.0517 122.682 38.6732 122.575 39.3029C122.543 39.5348 122.555 39.7708 122.612 39.9979C122.714 40.4518 122.997 40.5867 123.39 40.3536C123.674 40.1811 123.936 39.9752 124.171 39.7403C125.027 38.9047 125.762 37.9538 126.356 36.9151C126.536 36.6044 126.732 36.3591 127.211 36.539C127.211 36.8701 127.211 37.2177 127.211 37.5611C127.169 38.7573 126.881 39.9321 126.364 41.0119C125.93 41.8296 125.321 42.5042 124.347 42.6473C123.883 42.688 123.416 42.6715 122.956 42.5983C122.833 42.5983 122.633 42.4347 122.633 42.3448C122.637 42.2653 122.658 42.1877 122.694 42.1171C122.731 42.0465 122.783 41.9847 122.845 41.9359C123.012 41.8419 123.207 41.8128 123.394 41.8542C123.827 41.9546 124.281 41.9044 124.682 41.7119C125.083 41.5193 125.406 41.196 125.599 40.7952C125.984 40.0864 126.182 39.2915 126.176 38.4851Z" fill="white"/>
<path d="M79.2378 38.436C78.8287 38.8981 78.5546 39.2947 78.2109 39.6381C77.8018 40.047 77.3313 40.4558 76.8649 40.8647C76.6783 41.0081 76.4678 41.1174 76.2431 41.1877C76.0913 41.2609 75.9237 41.2954 75.7553 41.2879C75.5869 41.2805 75.423 41.2314 75.2782 41.1451C75.1335 41.0588 75.0124 40.938 74.9259 40.7934C74.8394 40.6488 74.7901 40.4851 74.7825 40.3168C74.6794 39.298 74.8414 38.2699 75.253 37.3321C75.3173 37.1902 75.4286 37.0747 75.568 37.005C75.6262 36.9749 75.6907 36.9592 75.7562 36.9592C75.8217 36.9592 75.8863 36.9749 75.9444 37.005C75.9846 37.0547 76.0126 37.1132 76.0261 37.1757C76.0396 37.2382 76.0382 37.303 76.0222 37.3648C75.924 37.7737 75.7644 38.1825 75.6826 38.5914C75.6166 38.9572 75.581 39.3278 75.5762 39.6994C75.5529 39.8372 75.574 39.9787 75.6365 40.1037C75.699 40.2287 75.7997 40.3305 75.924 40.3945C76.2022 40.5171 76.419 40.3291 76.6154 40.1819C76.8809 39.9798 77.1312 39.7584 77.3641 39.5195C78.131 38.7304 78.7962 37.8486 79.3442 36.8946C79.5201 36.588 79.7083 36.3304 80.1624 36.4858C80.1994 36.5902 80.2241 36.6986 80.236 36.8088C80.2666 38.0274 80.0624 39.2406 79.6346 40.3822C79.4775 40.7825 79.2758 41.1638 79.0332 41.5189C78.7071 42.0044 78.2317 42.3707 77.679 42.5624C77.1262 42.7542 76.526 42.761 75.969 42.5819C75.8381 42.5451 75.6417 42.4224 75.6376 42.3325C75.6385 42.2494 75.6577 42.1675 75.6938 42.0926C75.7298 42.0178 75.7819 41.9517 75.8462 41.8991C76.0149 41.8077 76.2096 41.776 76.3985 41.8091C76.8315 41.9151 77.2879 41.8684 77.6904 41.677C78.0929 41.4855 78.417 41.161 78.6078 40.7584C78.9953 40.0436 79.211 39.2485 79.2378 38.436Z" fill="white"/>
<path d="M143.485 41.0364C143.203 41.2572 142.978 41.4453 142.745 41.6089C142.274 41.9641 141.728 42.2074 141.149 42.3203C140.886 42.383 140.613 42.3883 140.348 42.336C140.082 42.2837 139.832 42.1748 139.612 42.0169C139.393 41.859 139.21 41.6558 139.077 41.4209C138.943 41.1861 138.861 40.9253 138.838 40.6562C138.758 40.0329 138.806 39.3997 138.98 38.7957C139.153 38.1918 139.449 37.6297 139.848 37.1441C140.087 36.8291 140.41 36.5879 140.78 36.4483C141.149 36.3087 141.551 36.2764 141.939 36.355C142.186 36.3867 142.41 36.5143 142.563 36.7103C142.716 36.9062 142.786 37.1547 142.757 37.4017C142.753 37.5195 142.711 37.6329 142.637 37.725C142.563 37.817 142.462 37.8829 142.348 37.9127C142.16 37.97 141.967 37.9332 141.939 37.7124C141.898 37.4058 141.783 37.185 141.452 37.1441C141.279 37.1082 141.099 37.1185 140.931 37.1737C140.763 37.2289 140.613 37.3273 140.495 37.4589C140.414 37.5452 140.342 37.6382 140.278 37.7369C139.776 38.5205 139.569 39.4563 139.693 40.3782C139.715 40.5741 139.781 40.7625 139.885 40.9298C139.989 41.0971 140.13 41.239 140.296 41.3451C140.462 41.4513 140.65 41.519 140.846 41.5434C141.041 41.5679 141.24 41.5483 141.427 41.4862C142.147 41.2762 142.783 40.8475 143.248 40.2596C143.375 40.1165 143.489 39.9489 143.628 39.8139C143.702 39.7222 143.803 39.6572 143.917 39.6291C144.031 39.601 144.151 39.6114 144.258 39.6586C144.424 39.6952 144.596 39.6952 144.762 39.6586C145.011 39.6227 145.263 39.605 145.514 39.6054C145.575 39.6021 145.634 39.6177 145.685 39.6498C145.736 39.682 145.776 39.7292 145.799 39.7849C145.822 39.8406 145.827 39.902 145.813 39.9607C145.8 40.0194 145.768 40.0724 145.723 40.1124C145.599 40.2572 145.425 40.3517 145.236 40.3782C144.77 40.4109 144.443 40.5417 144.418 41.0855C144.41 41.2053 144.36 41.3184 144.276 41.404C144.192 41.4896 144.079 41.542 143.96 41.5516C143.624 41.5925 143.592 41.3186 143.485 41.0364Z" fill="white"/>
<path d="M96.4984 41.1059C95.9625 41.4412 95.4838 41.7887 94.9642 42.0545C94.6814 42.2145 94.368 42.3132 94.0445 42.3442C93.7209 42.3752 93.3945 42.3378 93.0864 42.2344C92.7717 42.1451 92.4899 41.966 92.2756 41.7191C92.0612 41.4722 91.9235 41.1681 91.8795 40.8442C91.7695 40.1835 91.8036 39.5068 91.9794 38.8604C92.1553 38.2141 92.4686 37.6132 92.8982 37.0991C93.1383 36.7996 93.4559 36.5715 93.8165 36.4396C94.1771 36.3077 94.5669 36.277 94.9438 36.3508C95.0666 36.365 95.1854 36.4034 95.2933 36.4639C95.4012 36.5243 95.4959 36.6056 95.5721 36.703C95.6482 36.8004 95.7042 36.912 95.7368 37.0312C95.7694 37.1504 95.778 37.275 95.762 37.3975C95.7599 37.5159 95.7187 37.6303 95.6446 37.7228C95.5706 37.8153 95.468 37.8806 95.3529 37.9086C95.1565 37.9658 94.9724 37.9086 94.9438 37.7042C94.8988 37.4261 94.821 37.1686 94.5142 37.1604C94.2324 37.1379 93.9498 37.1915 93.696 37.3158C92.8286 37.8882 92.3827 40.0551 92.9105 40.9342C93.0744 41.1687 93.3058 41.3478 93.5739 41.4479C93.8421 41.5479 94.1343 41.5641 94.4119 41.4943C94.8931 41.3846 95.3365 41.149 95.6965 40.8115C95.987 40.5498 96.2407 40.2514 96.5148 39.9652C96.7889 39.679 96.9648 39.4582 97.3657 39.6912C97.4598 39.7444 97.6275 39.6667 97.7748 39.6504C98.0264 39.6085 98.2808 39.5866 98.5358 39.5849C98.6005 39.5786 98.6655 39.5932 98.7213 39.6267C98.777 39.6601 98.8205 39.7106 98.8453 39.7707C98.8701 39.8308 98.8749 39.8973 98.8589 39.9603C98.8429 40.0233 98.8071 40.0795 98.7567 40.1205C98.5979 40.2561 98.4032 40.3427 98.1962 40.37C97.6685 40.464 97.6235 40.4844 97.4966 40.9873C97.4066 41.3389 97.2266 41.527 96.973 41.5393C96.7193 41.5516 96.6948 41.5148 96.4984 41.1059Z" fill="white"/>
<path d="M87.5878 40.7584C87.1255 40.9505 86.6796 41.1672 86.2255 41.3185C86.1051 41.3819 85.9734 41.4207 85.8379 41.4325C85.7024 41.4444 85.5659 41.4291 85.4363 41.3876C85.3068 41.3461 85.1869 41.2792 85.0835 41.1908C84.9802 41.1024 84.8955 40.9943 84.8345 40.8729C84.6299 41.0119 84.4254 41.1509 84.2454 41.2817C83.6112 41.662 83.2021 41.4943 83.018 40.7911C82.9935 40.697 82.9771 40.603 82.9526 40.4803L81.8889 40.4027C81.8109 40.5674 81.7119 40.7213 81.5943 40.8606C81.389 41.0636 81.1512 41.2308 80.8906 41.3553C80.7321 41.4113 80.5579 41.4033 80.4052 41.3331C80.2524 41.2629 80.133 41.1359 80.0724 40.9792C80.0095 40.7632 79.9986 40.5354 80.0405 40.3145C80.0825 40.0935 80.1761 39.8855 80.3138 39.7076C80.4582 39.5566 80.6507 39.4606 80.8582 39.436C81.0657 39.4114 81.2753 39.4597 81.4511 39.5727C82.0198 39.8711 82.5966 39.6422 83.1735 39.634C83.2688 39.618 83.3631 39.5962 83.4558 39.5686C83.5035 39.5538 83.5542 39.5513 83.6032 39.5611C83.6522 39.571 83.698 39.5931 83.7362 39.6252C83.7745 39.6574 83.8041 39.6986 83.8223 39.7451C83.8405 39.7917 83.8467 39.842 83.8403 39.8916C83.8403 40.1165 83.8731 40.3413 83.9017 40.7093C84.1922 40.4476 84.3763 40.3004 84.5481 40.1165C84.7199 39.9325 84.7486 39.8139 84.8877 39.7076C85.0237 39.6055 85.1881 39.5484 85.3581 39.5441C85.5832 39.5441 85.5832 39.773 85.5873 39.9529C85.5809 40.0113 85.5809 40.0703 85.5873 40.1287C85.6527 40.5744 85.8532 40.7257 86.2787 40.5376C86.7785 40.3141 87.2648 40.0615 87.7351 39.7812C87.9642 39.6545 88.1442 39.5154 88.4347 39.6749C88.5411 39.7362 88.7293 39.6749 88.8806 39.6422C89.1305 39.5988 89.3839 39.5796 89.6375 39.5849C89.9361 39.6136 90.0466 39.8711 89.838 40.0878C89.6891 40.2314 89.5013 40.3281 89.2979 40.3659C88.7088 40.4681 88.717 40.4558 88.537 41.0568C88.4843 41.2207 88.3812 41.3638 88.2424 41.4657C88.0133 41.6293 87.7924 41.5352 87.7024 41.2572C87.6615 41.1059 87.6328 40.9301 87.5878 40.7584Z" fill="white"/>
<path d="M131.007 40.5826C131.171 40.4395 131.359 40.2841 131.527 40.1124C131.695 39.9407 131.727 39.8016 131.866 39.7035C132.021 39.6014 132.204 39.55 132.39 39.5563C132.456 39.5563 132.517 39.7976 132.566 39.9366C132.58 40.0137 132.589 40.0915 132.595 40.1696C132.668 40.5539 132.852 40.7011 133.212 40.558C133.701 40.355 134.175 40.1201 134.632 39.8548C134.906 39.6994 135.127 39.4746 135.479 39.6953C135.577 39.7567 135.778 39.6545 135.929 39.6299C136.08 39.6054 136.277 39.5768 136.453 39.5686C136.629 39.5604 136.915 39.5686 136.907 39.818C136.863 40.018 136.747 40.1946 136.579 40.3127C136.473 40.3986 136.277 40.3577 136.125 40.3822C135.745 40.4477 135.647 40.5499 135.557 40.9424C135.532 41.0528 135.524 41.204 135.45 41.2654C135.318 41.3963 135.148 41.481 134.963 41.5066C134.861 41.5066 134.738 41.2899 134.665 41.1468C134.621 41.0146 134.594 40.8771 134.587 40.7379C134.121 40.9342 133.675 41.1468 133.221 41.3022C133.099 41.3661 132.967 41.4053 132.83 41.4177C132.693 41.43 132.556 41.4153 132.425 41.3742C132.294 41.3332 132.173 41.2667 132.068 41.1785C131.963 41.0904 131.876 40.9823 131.813 40.8606C131.629 40.9873 131.461 41.11 131.285 41.2204C130.602 41.6579 130.185 41.4902 130.001 40.7134C130.001 40.6398 129.964 40.5662 129.935 40.4681L129.416 40.419C129.24 40.419 129.064 40.3945 128.904 40.3863C128.75 40.62 128.579 40.8427 128.393 41.0528C128.267 41.2066 128.092 41.3117 127.897 41.3498C127.702 41.3879 127.5 41.3566 127.325 41.2613C127.173 41.1567 127.06 41.0035 127.006 40.8268C126.952 40.6501 126.959 40.4602 127.027 40.2882C127.219 39.4909 127.751 39.2252 128.479 39.5849C129.015 39.8507 129.551 39.6299 130.087 39.6381C130.184 39.6222 130.28 39.599 130.373 39.5686C130.692 39.5236 130.782 39.6013 130.823 39.9366L130.885 40.5131C130.885 40.5131 130.925 40.5294 131.007 40.5826Z" fill="white"/>
<path d="M115.743 37.2422C115.561 37.4123 115.364 37.5656 115.154 37.7001C115.095 37.7227 115.031 37.7311 114.968 37.7247C114.904 37.7183 114.844 37.6973 114.79 37.6633C114.754 37.6107 114.731 37.5504 114.722 37.4872C114.714 37.424 114.72 37.3597 114.741 37.2995C114.876 37.0604 115.063 36.8541 115.287 36.6952C115.511 36.5362 115.767 36.4284 116.038 36.3795C116.096 36.3684 116.157 36.3695 116.215 36.3827C116.274 36.3959 116.329 36.4209 116.377 36.4561C116.425 36.4914 116.466 36.5361 116.496 36.5876C116.526 36.6392 116.546 36.6963 116.553 36.7557C116.627 37.0222 116.668 37.2968 116.676 37.5734C116.719 38.9614 116.567 40.3486 116.226 41.6947C116.143 41.948 116.003 42.1789 115.817 42.3693C115.751 42.4429 115.518 42.4347 115.408 42.3693C115.297 42.3039 115.314 42.1281 115.334 42.0095C115.453 41.3799 115.641 40.7584 115.706 40.1206C115.788 39.3029 115.776 38.4851 115.8 37.6674C115.79 37.5246 115.771 37.3826 115.743 37.2422Z" fill="white"/>
<path d="M117.952 40.1614C118.128 40.141 118.308 40.1287 118.484 40.096C119.061 39.9897 119.638 39.863 120.215 39.7771C120.362 39.7526 120.624 39.8016 120.669 39.8998C120.796 40.1205 120.628 40.3086 120.432 40.4231C120.255 40.5058 120.068 40.5623 119.875 40.5907C119.586 40.6452 119.293 40.6834 119 40.7052C118.872 40.6947 118.744 40.7301 118.64 40.805C118.536 40.8799 118.462 40.9895 118.431 41.1141C118.341 41.3962 118.05 41.4902 117.772 41.5229C117.2 41.617 116.999 41.3635 117.179 40.7666C117.1 40.69 117.025 40.6095 116.954 40.5253C116.745 40.2473 116.737 40.0102 117.024 39.818C117.385 39.5879 117.769 39.3948 118.169 39.2415C118.238 39.2252 118.31 39.2272 118.379 39.2473C118.447 39.2673 118.509 39.3048 118.558 39.356C118.579 39.4255 118.583 39.4994 118.569 39.5708C118.554 39.6422 118.523 39.7089 118.476 39.7648C118.311 39.8797 118.131 39.9705 117.94 40.0347L117.952 40.1614Z" fill="white"/>
</g>
<defs>
<clipPath id="clip0_3_76">
<rect width="163" height="50" fill="white"/>
</clipPath>
</defs>
</svg>
